<svg xmlns="http://www.w3.org/2000/svg" width="56" height="56" data-supported-dps="56x56">
  <path fill="#fff" d="M7 8h42v30H7z"/>
  <path fill="#98d8f4" d="M10 41h36v2H10z"/>
  <path fill="#caedff" d="M13 46h30v2H13z"/>
  <path d="M50 5H6a2 2 0 00-2 2v32a2 2 0 002 2h1v3a2 2 0 002 2h1v3a2 2 0 002 2h32a2 2 0 002-2v-3h1a2 2 0 002-2v-3h1a2 2 0 002-2V7a2 2 0 00-2-2zm-7 43H13v-2h30v2zm3-5H10v-2h36v2zm3-5H7V8h42v30z" fill="#006097"/>
  <path fill="#98d8f4" d="M10 19h16v16H10z"/>
  <path fill="#0091ca" d="M10 11h36v5H10zM31 19h15v3H31zM31 25h15v3H31zM31 31h8v3h-8z"/>
</svg>