<?xml version="1.0"?>
<svg xmlns="http://www.w3.org/2000/svg" height="512px" version="1.1" viewBox="0 0 574.85638 574" width="512px" class=""><g><g id="surface1">
<path d="M 502.011719 368.398438 C 583.496094 286.910156 583.496094 154.792969 502.007812 73.308594 C 420.519531 -8.179688 288.40625 -8.175781 206.917969 73.308594 C 125.433594 154.796875 125.433594 286.910156 206.917969 368.394531 C 288.40625 449.882812 420.519531 449.882812 502.007812 368.398438 C 502.007812 368.398438 502.007812 368.398438 502.011719 368.398438 Z M 469.226562 106.089844 C 532.503906 169.511719 532.503906 272.1875 469.226562 335.613281 C 532.503906 272.1875 532.503906 169.511719 469.226562 106.089844 Z M 469.226562 106.089844 " style="fill:#FFFFFF" data-original="#BFB073" class="active-path" data-old_color="#BFB073"/>
<path d="M 34.773438 556.921875 C 43.828125 565.972656 58.503906 565.972656 67.558594 556.921875 L 182.320312 442.15625 C 191.378906 433.105469 191.378906 418.425781 182.328125 409.371094 C 182.324219 409.367188 182.324219 409.367188 182.320312 409.363281 L 165.929688 392.972656 C 156.875 383.914062 142.195312 383.914062 133.140625 392.964844 C 133.140625 392.964844 133.136719 392.96875 133.136719 392.972656 L 18.371094 507.734375 C 9.320312 516.789062 9.320312 531.464844 18.371094 540.519531 Z M 34.773438 556.921875 " style="fill:#C8E8FF" data-original="#818085" class="" data-old_color="#818085"/>
<path d="M 510.207031 65.109375 C 424.371094 -20.964844 285.011719 -21.15625 198.9375 64.679688 C 115.886719 147.5 112.371094 280.898438 190.945312 367.980469 L 174.136719 384.789062 C 160.558594 371.203125 138.539062 371.203125 124.957031 384.785156 C 124.957031 384.785156 124.953125 384.785156 124.953125 384.789062 L 10.1875 499.550781 C -3.394531 513.132812 -3.394531 535.148438 10.183594 548.734375 C 10.183594 548.734375 10.1875 548.734375 10.1875 548.738281 L 26.578125 565.128906 C 40.160156 578.703125 62.171875 578.703125 75.753906 565.128906 L 190.515625 450.363281 C 204.097656 436.785156 204.101562 414.765625 190.519531 401.183594 C 190.519531 401.183594 190.515625 401.179688 190.515625 401.179688 L 207.324219 384.371094 C 297.511719 465.875 436.695312 458.832031 518.195312 368.648438 C 596.921875 281.535156 593.40625 147.960938 510.207031 65.109375 Z M 174.136719 433.960938 L 59.375 548.726562 C 54.847656 553.25 47.507812 553.25 42.984375 548.726562 L 26.589844 532.324219 C 22.074219 527.796875 22.074219 520.46875 26.589844 515.941406 L 141.355469 401.179688 C 145.9375 396.796875 153.160156 396.796875 157.746094 401.179688 L 174.136719 417.582031 C 178.652344 422.109375 178.652344 429.4375 174.136719 433.960938 Z M 493.824219 360.203125 C 416.867188 437.160156 292.089844 437.15625 215.132812 360.199219 C 138.171875 283.238281 138.175781 158.460938 215.136719 81.503906 C 292.09375 4.546875 416.867188 4.546875 493.824219 81.503906 C 570.660156 158.515625 570.660156 283.1875 493.824219 360.203125 Z M 493.824219 360.203125 " style="fill:#0073B1" data-original="#231F20" class="" data-old_color="#231F20"/>
<path d="M 477.421875 97.894531 L 461.03125 114.285156 C 519.78125 173.179688 519.78125 268.511719 461.03125 327.40625 L 477.421875 343.796875 C 545.230469 275.851562 545.230469 165.839844 477.421875 97.894531 Z M 477.421875 97.894531 " style="fill:#0073B1" data-original="#231F20" class="" data-old_color="#231F20"/>
</g></g> </svg>
