<svg id="Capa_1" enable-background="new 0 0 512 512" height="512" viewBox="0 0 512 512" width="512" xmlns="http://www.w3.org/2000/svg"><g><path d="m361 190v-85c0-57.897-47.103-105-105-105s-105 47.103-105 105v85h-60v50c0 85.925 66.023 156.707 150 164.311v77.689h-60v30h150v-30h-60v-77.689c83.978-7.604 150-78.386 150-164.311v-50zm-105-160c39.674 0 72.23 30.97 74.815 70h-44.815v30h45v30h-45v30h45v30h-45v30h44.314c-4.906 36.642-36.351 65-74.314 65s-69.407-28.358-74.314-65h44.314v-30h-45v-30h45v-30h-45v-30h45v-30h-44.814c2.584-39.03 35.14-70 74.814-70zm135 210c0 74.44-60.56 135-135 135s-135-60.56-135-135v-20h30v20c0 57.897 47.102 105 105 105s105-47.103 105-105v-20h30z"/></g></svg>