<?xml version="1.0" encoding="iso-8859-1"?>
<!-- Generator: Adobe Illustrator 18.0.0, SVG Export Plug-In . SVG Version: 6.00 Build 0)  -->
<!DOCTYPE svg PUBLIC "-//W3C//DTD SVG 1.1//EN" "http://www.w3.org/Graphics/SVG/1.1/DTD/svg11.dtd">
<svg version="1.1" id="Capa_1" xmlns="http://www.w3.org/2000/svg" xmlns:xlink="http://www.w3.org/1999/xlink" x="0px" y="0px"
	 viewBox="0 0 324.908 324.908" style="enable-background:new 0 0 324.908 324.908;" xml:space="preserve">
<path d="M324.36,122.292c-7.444-27.881-22.219-53.457-42.726-73.964C250.471,17.163,209.035,0,164.962,0
	C120.889,0,79.453,17.163,48.289,48.328c-64.333,64.333-64.333,169.011,0,233.344c20.505,20.506,46.081,35.281,73.963,42.728
	c1.279,0.342,2.579,0.509,3.869,0.509c3.927,0,7.758-1.544,10.607-4.395l183.746-183.746
	C324.261,132.981,325.742,127.465,324.36,122.292z M69.502,69.541C95,44.043,128.902,30,164.962,30s69.962,14.043,95.46,39.541
	c10.895,10.895,19.802,23.534,26.381,37.296c-19.129-1.826-38.529-0.335-57.218,4.496c-28.381,7.336-54.395,22.226-75.229,43.061
	c-20.83,20.83-35.719,46.839-43.057,75.214c-4.834,18.694-6.327,38.101-4.501,57.234c-13.762-6.58-26.402-15.488-37.296-26.383
	C16.866,207.823,16.866,122.178,69.502,69.541z"/>
<g>
</g>
<g>
</g>
<g>
</g>
<g>
</g>
<g>
</g>
<g>
</g>
<g>
</g>
<g>
</g>
<g>
</g>
<g>
</g>
<g>
</g>
<g>
</g>
<g>
</g>
<g>
</g>
<g>
</g>
</svg>
