<?xml version="1.0" encoding="iso-8859-1"?>
<!-- Generator: Adobe Illustrator 19.0.0, SVG Export Plug-In . SVG Version: 6.00 Build 0)  -->
<svg version="1.1" id="Capa_1" xmlns="http://www.w3.org/2000/svg" xmlns:xlink="http://www.w3.org/1999/xlink" x="0px" y="0px"
	 viewBox="0 0 511.995 511.995" style="enable-background:new 0 0 511.995 511.995;" xml:space="preserve">
<g>
	<g>
		<path d="M508.072,34.075c-4.743-6.375-12.83-9.289-20.553-7.432L15.158,140.935c-7.921,1.916-13.86,8.483-14.97,16.556
			c-1.117,8.073,2.821,16.001,9.93,19.991l174.609,98.066l43.008,194.811c1.757,7.967,8.225,14.045,16.285,15.307
			c1.024,0.159,2.055,0.238,3.072,0.238c6.97,0,13.523-3.686,17.104-9.837l245.106-420.17
			C513.297,49.039,512.815,40.444,508.072,34.075z M255.507,412.308l-31.229-141.451l67.003-49.826
			c8.787-6.527,10.61-18.941,4.076-27.727c-6.534-8.793-18.941-10.597-27.727-4.076l-66.976,49.799L73.486,167.612l378.127-91.493
			L255.507,412.308z"/>
	</g>
</g>
<g>
</g>
<g>
</g>
<g>
</g>
<g>
</g>
<g>
</g>
<g>
</g>
<g>
</g>
<g>
</g>
<g>
</g>
<g>
</g>
<g>
</g>
<g>
</g>
<g>
</g>
<g>
</g>
<g>
</g>
</svg>
